<svg version="1.1" id="logo" xmlns="http://www.w3.org/2000/svg" x="0" y="0" viewBox="0 0 512 512" xml:space="preserve"><style>.st0{fill:#e3bbff}</style><path class="st0" d="M65.6 234.8V512h124.3V234.8H65.6z"/><path fill="#4f376f" d="M219.9 234.8h72.2V512h-72.2z"/><path class="st0" d="M322.1 234.8V512h124.3V234.8H322.1z"/><path d="M355.4 114.7c4.2-3.2 8.2-6.7 11.9-10.4l2.4-2.4c25.9-27.3 18.8-62.3-1.5-82.6-20.4-20.4-55.3-27.4-82.6-1.5l-2.4 2.4c-11.9 11.9-21 26-27.1 41.3-6-15.3-15.2-29.4-27.1-41.3l-2.4-2.4C199.3-8.1 164.3-1 144 19.3c-20.4 20.4-27.4 55.3-1.5 82.6l2.4 2.4c3.8 3.8 7.8 7.2 11.9 10.4H65.5v92.1h380.1v-92.1h-90.2zm-120.9-4.8c-25.4 1-50.4-8.7-68.6-26.8l-1.8-1.8c-14.3-15.1-8.4-31.4 1-40.8 5.3-5.3 12.9-9.5 21.2-9.5 6.3 0 13 2.4 19.5 8.6l1.8 1.8c18.3 18.1 27.9 43.1 26.9 68.5zm113.4-28.7l-1.8 1.8c-17.4 17.4-40.9 27-65.1 27h-3.5c-1-25.5 8.6-50.5 26.8-68.7l1.8-1.8c15.1-14.3 31.4-8.4 40.8 1 9.4 9.3 15.2 25.6 1 40.7z" fill="#ca7eff"/></svg>